<svg version="1.1" id="nf2" xmlns="http://www.w3.org/2000/svg" xmlns:xlink="http://www.w3.org/1999/xlink" x="0px" y="0px"
	 width="983.07px" height="503.226px" viewBox="0 0 983.07 503.226" enable-background="new 0 0 983.07 503.226"
	 xml:space="preserve">
<g>
	<g transform="translate(0.000000,1600.000000) scale(0.100000,-0.100000)">
		<path d="M1006.699,15779.896c-164.883-14.59-323.32-77.036-457.266-180.63c-33.281-25.679-114.102-105.64-141.25-140.073
			c-47.852-60.117-99.219-148.54-126.66-217.407c-24.512-61.572-41.719-125.479-53.691-198.438l-6.699-40.854l-0.879-1489.727
			c-0.586-1082.358,0-1501.401,2.344-1532.046c20.41-264.102,160.195-503.105,380.527-650.469
			c104.18-69.727,227.031-117.305,351.055-135.996c60.977-9.336,117.891-10.488,419.629-9.609l300.566,0.879l-14.59,8.457
			c-138.027,79.355-262.637,285.977-331.211,548.613c-39.688,152.031-58.359,277.813-76.445,515.352
			c-2.637,33.848-3.809,456.113-4.375,1668.911l-0.879,1623.672l17.227-15.757c9.609-8.755,423.125-418.179,919.219-910.181
			l901.992-894.424v-280.151v-280.137l-48.73,48.438c-80.527,79.375-1068.633,1061.348-1251.309,1243.438l-169.258,168.672
			l-0.859-883.623c-0.879-891.807,0-988.389,9.902-1154.736c22.188-376.133,75-656.875,162.832-866.113
			c16.934-40.254,56.914-117.891,79.082-153.77c45.527-73.262,126.66-163.418,189.102-209.824
			c104.18-77.637,227.324-131.035,385.195-166.621l51.66-11.973l768.359,1.152c844.531,0.898,778.281-0.566,870.488,18.105
			c280.43,56.602,521.484,260.586,626.836,529.941c25.098,64.492,40.84,125.488,53.398,206.895
			c4.668,31.523,5.254,120.527,6.133,1513.086c0.586,1007.935,0,1493.228-2.344,1522.407
			c-5.547,81.128-17.793,142.993-42.031,216.821c-109.141,328.589-401.816,558.54-747.324,588.013
			c-21.016,1.753-161.973,2.92-350.195,2.92h-315.156l16.914-9.634c29.199-16.338,52.246-34.722,86.68-69.16
			c135.703-135.107,235.781-371.484,285.684-674.097c15.762-96.006,25.977-190.85,35.898-334.131
			c2.344-36.479,3.496-474.79,4.375-1664.546l1.172-1614.609l-11.387,9.629c-6.426,5.547-313.418,309.316-682.266,675.273
			c-368.867,365.938-777.695,770.977-907.852,900.254l-237.246,234.902v281.323v281.016l540.742-537.827
			c297.07-295.898,627.988-625.371,735.371-731.875l194.648-194.063v882.754c0,510.391-1.172,920.107-2.91,971.465
			c-16.641,523.525-79.961,873.12-202.813,1119.995c-44.648,89.878-90.762,156.416-153.203,220.615
			c-64.492,66.24-128.691,112.642-214.492,154.956c-77.617,38.232-156.426,65.073-257.676,87.837l-44.941,9.922l-757.559-0.293
			C1373.223,15782.522,1020.996,15781.355,1006.699,15779.896z"/>
	</g>
	<g>
		<path d="M862.836,184.105v166.337h-79.094v38.828h79.094v39.307h-79.094V389.27h-104.98h-13.9h-30.199
			c-9.588,0-17.818-3.43-24.688-10.307c-6.875-6.867-10.307-15.1-10.307-24.688v-3.834V140.963v-3.834
			c0-9.902,3.432-18.291,10.307-25.167c6.869-6.868,15.1-10.307,24.688-10.307h30.199h13.9h104.98h13.422h31.158
			c9.588,0,17.736,3.438,24.447,10.307c6.711,6.876,10.066,14.942,10.066,24.208v4.793V184.105z M678.762,140.963v209.479h104.98
			V184.105v-43.142H678.762z"/>
	</g>
	<polygon points="961.066,21.603 961.066,97.833 943.066,97.833 943.066,39.603 884.836,39.603 884.836,21.603 	"/>
	<polygon points="961.066,405.004 961.066,481.223 884.836,481.223 884.836,463.223 943.066,463.223 943.066,405.004 	"/>
	<polygon points="577.666,463.223 577.666,481.223 501.445,481.223 501.445,406.383 519.445,406.383 519.445,463.223 	"/>
	<polygon points="577.666,21.603 577.666,39.603 519.445,39.603 519.445,99.213 501.445,99.213 501.445,21.603 	"/>
</g>
</svg>
